<svg width="177" height="46" viewBox="0 0 177 46" fill="none" xmlns="http://www.w3.org/2000/svg">
<g clip-path="url(#clip0_15:42)">
<path d="M67.9696 40.1273C61.3835 36.7599 52.445 36.169 38.0301 39.3432C22.6626 42.2093 17.5382 44.0467 10.8101 40.3584C8.22498 38.5465 7.29829 35.6291 7.99017 31.4271C9.59537 24.5767 13.9331 17.9846 21.6383 10.672C25.9393 6.86732 29.929 3.60343 35.1966 2.29258C39.234 1.47034 38.8563 3.98857 38.368 4.34819C37.6497 4.33295 36.9401 4.4752 36.3171 4.75931C35.774 5.09363 34.283 6.17316 34.2027 7.62541C34.0871 9.84863 36.9859 9.38578 38.2362 8.16529C39.5838 6.78984 41.5755 4.15573 40.0087 1.70074C39.6594 1.25401 39.1927 0.87239 38.6405 0.58195C38.0883 0.29151 37.4636 0.0990971 36.8092 0.0178566C31.9856 -0.200806 27.4927 1.62417 23.3468 3.64183C14.2795 8.64102 7.0262 15.5689 2.92213 23.1509C0.556174 27.7259 -1.5838 34.2794 1.62374 39.6134C4.10525 43.3144 9.25668 45.2803 15.4028 44.8692C19.7135 44.5098 24.9259 43.4041 28.4317 42.7363C31.9375 42.0686 49.8827 37.1717 55.7792 45.6928C56.4869 44.75 57.4917 43.9697 58.6947 43.4287C59.8976 42.8877 61.2574 42.6047 62.64 42.6074C66.6687 42.3123 72.4804 43.5335 76.7125 46C75.302 44.3171 71.3044 41.8366 67.9696 40.1273Z" fill="#E61A27"/>
<path d="M39.8601 11.5316C36.5037 9.78386 29.7565 13.1252 24.3546 18.8568C19.4138 23.9978 17.2801 29.9731 19.6016 32.7364C23.0554 35.9877 29.4673 31.2586 32.1942 28.7273L32.5459 28.4314C34.4002 26.8501 35.8326 24.9484 37.2195 23.1229C37.2195 23.1229 38.494 21.4514 38.5549 21.375C39.3424 21.2598 40.291 21.0798 41.3603 20.8356C41.3449 20.8738 37.2702 26.3103 37.6857 29.0085C37.8152 29.8317 37.7164 32.839 41.4155 33.7522C46.3458 34.4073 50.2828 31.3747 53.7559 28.6758C53.7559 28.6758 54.3476 28.2265 54.6826 27.9699C54.5972 28.2389 54.4873 28.5981 54.4873 28.5981C53.0438 32.5821 54.9897 33.4182 56.2067 33.7258C59.8849 34.5747 64.2793 30.3334 64.2935 30.3334C64.1797 31.6693 63.8464 32.7744 65.621 33.6614C67.2956 34.1374 68.9907 33.4118 70.2792 32.7305C74.92 30.1348 78.6586 26.0717 81.6783 22.5598H79.7532C79.7305 22.5598 75.0003 28.0015 71.9288 29.1841C71.9239 29.1841 71.3647 29.4118 71.0428 29.2317C70.6443 28.9618 70.8011 28.4004 71.0473 28.0029C71.0627 27.9771 82.9073 11.6725 82.9073 11.6725H77.3141C77.3141 11.6725 76.7034 12.4571 76.6536 12.5083C76.616 12.4828 76.5263 12.3477 76.4643 12.2824C72.9995 8.47843 65.1533 14.3297 59.2454 21.1148C56.9711 23.7238 54.0758 26.6615 51.0734 28.782C51.0734 28.782 46.6256 32.0181 44.7252 29.693C44.0305 28.716 44.2442 27.2879 44.6361 26.3498C46.849 21.3504 50.6616 16.8134 55.0005 14.0758C56.2243 13.3181 57.5566 13.0988 58.2166 13.4207C58.8461 13.7168 58.9477 14.4487 58.5496 14.95C58.0917 14.9237 57.6321 14.978 57.2038 15.109C56.7754 15.24 56.3887 15.4445 56.0715 15.7078C54.7751 16.7874 54.3245 17.8285 54.7366 18.8055C56.7392 21.0673 60.7331 16.5949 60.5398 13.8702C60.516 13.3981 60.3484 12.9376 60.0514 12.528C59.7544 12.1185 59.3369 11.7722 58.8345 11.5187C57.3738 10.825 55.1459 11.0048 53.7041 11.5578C51.7736 12.1358 48.7183 14.1533 46.9349 15.7216C44.6894 17.688 40.8395 19.8724 39.6356 19.628C40.0292 18.7922 43.2817 13.5106 39.8601 11.5318V11.5316ZM66.822 19.3451C67.9098 18.1502 71.0761 14.95 71.8482 14.4103C74.4444 12.5976 75.4821 13.3952 75.5718 13.9604C73.1489 17.4045 70.2891 21.3502 67.6004 24.8973C67.6058 24.8847 66.7591 25.9125 66.7591 25.9125C65.5717 27.3514 64.3761 28.5854 62.4257 29.4461C62.2541 29.4914 62.0722 29.5068 61.8924 29.4912C61.7126 29.4756 61.5392 29.4294 61.384 29.3557C61.2134 29.2634 61.0788 29.135 60.9956 28.985C60.9124 28.835 60.8839 28.6695 60.9132 28.5073C61.0302 27.4025 62.4476 24.0231 66.822 19.3449V19.3451ZM36.399 21.4143C36.399 21.4143 36.35 21.5304 36.3261 21.5684C36.3199 21.5684 33.8876 24.7166 33.8876 24.7166C32.4199 26.2719 30.5861 28.2258 28.2964 29.1635C27.6174 29.3442 26.6787 29.4594 26.2003 28.9841C25.1862 28.02 25.7088 26.6834 26.1334 25.6041L26.284 25.2185C27.5012 22.5982 29.4326 20.2833 31.3127 18.1371C31.3419 18.1235 31.3742 18.1148 31.4078 18.1116C31.4161 18.1235 31.4213 18.1366 31.4232 18.1502C32.6029 19.9492 34.8148 20.7841 36.4693 21.1701C36.4792 21.1701 36.4901 21.183 36.4901 21.2087C36.4749 21.2809 36.4441 21.3503 36.399 21.4141V21.4143ZM38.7043 17.7007C38.6935 17.7264 37.6211 19.6797 37.6211 19.6797C37.466 19.7825 37.2209 19.7312 36.9397 19.6797L36.4582 19.6151C34.9463 19.2426 33.8062 18.4456 33.4544 17.4949C32.9706 15.6441 34.9628 14.1919 35.8391 13.6653C36.6813 13.2023 37.9905 12.9581 38.7507 13.4338C39.2051 13.8942 39.4347 14.4694 39.3973 15.0534C39.3956 15.8883 39.0715 16.8265 38.7029 17.7007H38.7043ZM109.401 23.6642C109.112 23.1985 108.655 22.8117 108.088 22.553C107.521 22.2944 106.87 22.1756 106.218 22.2119C101.787 22.5334 97.4542 25.425 95.1791 29.576C93.9851 31.7095 93.3337 33.4699 92.9065 36.2716C94.2843 35.0125 97.0942 32.9436 100.283 31.8125C100.666 29.9825 101.572 28.2462 102.93 26.7361C103.767 25.7462 105.442 24.1528 107.323 24.5768C108.967 25.0139 108.389 28.6254 106.205 32.1202C104.549 34.7209 102.316 37.0633 99.6121 39.0349C97.3993 40.5258 94.1254 42.3248 91.2614 40.9372C89.4573 40.0894 88.5371 38.3152 88.7315 36.0279C89.5936 29.538 93.3157 24.0118 98.6425 17.7147C104.135 11.8672 110.189 5.86555 118.345 2.66513C120.009 1.99694 121.549 1.84288 122.881 2.25401C122.881 2.25401 115.225 5.59539 111.575 11.7771C110.647 13.3453 109.355 15.4652 110.656 17.3417C111.335 18.3182 112.542 18.3955 113.513 18.344C117.987 17.5213 120.877 14.2057 123.238 11.1731C124.607 8.87261 125.824 6.58501 125.824 4.04035C125.824 3.73201 125.804 3.32089 125.771 3.0121C127.909 2.11282 132.291 3.70603 132.291 3.70603C135.716 4.60598 143.008 9.04 145.469 9.88777C146.669 8.78271 148.64 7.11224 149.751 6.27667L148.143 5.49261C145.57 4.24591 142.849 3.06337 140.174 1.89416C134.094 -0.740179 129.145 0.18507 126.627 0.904759C125.637 1.18735 124.732 1.43154 124.732 1.43154C122.863 -0.18765 119.797 -0.0338179 117.539 0.403281C109.414 2.25288 101.872 6.76347 93.7862 14.5904C87.8418 20.7206 84.1544 26.0166 82.1889 31.246C80.674 34.7672 80.2137 39.9462 83.9111 43.0178C87.0549 45.626 91.2233 45.061 94.167 44.1234C100.545 41.6302 106.277 36.2578 109.134 30.0761C109.823 28.2385 110.588 25.6425 109.401 23.6633V23.6642ZM124.067 4.29629C123.223 11.9816 115.696 16.4928 113.834 16.8522C112.705 17.0329 110.779 16.6338 112.498 13.4085C115.03 9.06417 119.353 5.37627 123.99 3.48692C124.086 3.74959 124.112 4.02533 124.067 4.29651V4.29629ZM168.715 5.27259C164.666 7.09779 160.469 8.27988 155.388 7.86875C153.981 9.12855 152.61 10.4265 151.347 11.7627C158.478 13.202 166.037 10.0021 170.253 6.95661C173.028 4.99762 175.316 2.64374 177 0.0165558C174.586 2.08851 171.793 3.86036 168.715 5.27259H168.715ZM92.2009 11.6725H86.8901L83.8943 15.5353H89.204L92.2009 11.6725Z" fill="#E61A27"/>
<path d="M155.368 40.4849C154.797 40.7932 153.994 40.5563 154.294 39.8494C155.042 38.0502 158.012 34.3829 158.012 34.3829L166.286 22.7357H160.619C160.349 23.087 159.773 23.8934 159.773 23.8934C159.393 23.4179 158.932 22.9859 158.404 22.6094C157.02 21.9148 154.989 22.2433 153.587 22.8728C147.494 25.7005 143.049 31.2875 139.543 35.6443C139.543 35.6443 135.852 40.4874 133.803 40.8476C132.204 40.9507 132.369 39.2404 132.437 38.8422C133.056 35.963 134.492 33.2259 135.938 30.7453C139.248 28.9175 142.375 26.8896 145.292 24.6797C151.915 19.6543 157.5 13.961 158.316 12.6887C157.68 12.7826 157.036 12.8384 156.389 12.8557C151.295 18.4975 140.865 26.6972 137.704 27.9176C139.105 25.244 148.153 12.4827 155.853 6.37848L157.065 5.45233C158.939 4.00008 160.879 2.50942 162.393 2.26523C162.553 2.25236 162.758 2.26523 162.936 2.56138C163.003 3.69219 162.473 4.52663 161.865 5.47853L161.011 6.86663C161.686 6.76562 162.354 6.63676 163.012 6.48059C163.932 5.10604 164.952 3.56343 164.576 1.72603C164.525 1.44628 164.366 1.18596 164.121 0.981046C163.876 0.776132 163.556 0.636736 163.207 0.582118C160.91 0.235149 158.406 1.58417 156.392 2.67681L156.311 2.71498C145.956 9.15288 137.214 18.4325 129.568 31.1043C129.014 31.4379 126.873 31.8366 126.509 31.6437C127.264 30.4104 128.215 28.7523 128.69 26.9529C128.784 26.4377 128.837 25.9184 128.849 25.3981C128.849 24.2912 128.515 23.2521 127.266 22.532C125.803 21.9534 123.993 22.2236 122.774 22.66C117.309 24.4593 113.225 28.9061 110.279 32.5685C108.694 34.8952 107.114 37.3872 106.676 40.2409C106.368 42.4772 106.995 43.9164 108.597 44.6361C110.244 45.3038 112.317 44.6096 113.132 44.276C118.668 41.9626 122.536 37.3235 125.584 33.0824C126.609 33.0492 127.628 32.946 128.63 32.7741C128.648 32.7734 128.667 32.7782 128.681 32.7874C128.609 32.9794 127.958 34.5222 127.958 34.5222C126.026 39.0197 125.132 42.0788 126.958 43.8906C129.566 46.4482 133.885 43.8003 137.397 40.3048C136.643 44.4942 139.379 45.1502 141.464 44.829C143.86 44.3151 146.53 42.2841 147.768 41.2434C147.369 42.4632 147.478 44.6492 149.657 44.8674C151.151 45.0865 152.269 44.4418 153.562 43.8888C158.201 41.8838 163.755 35.2026 165.197 33.2719H163.306C161.257 35.731 158.648 38.9542 155.367 40.4844L155.368 40.4849ZM113.724 40.0374C113.451 39.6985 113.312 39.3028 113.323 38.9007C113.266 36.3807 116.681 31.868 119.094 29.4094H119.099C120.109 31.1655 122.397 32.2943 123.778 32.77C122.063 35.8033 116.179 42.2992 113.724 40.0374V40.0374ZM124.747 31.414C124.583 31.5043 121.698 30.7329 121.141 28.6129C120.668 26.7873 122.251 25.3601 123.784 24.642C124.117 24.4388 124.506 24.3013 124.919 24.2409C125.332 24.1804 125.757 24.1988 126.159 24.2944C126.834 24.6558 127.016 25.298 127.016 25.9908C127.004 26.4125 126.96 26.8332 126.883 27.2506L126.869 27.3409C126.386 28.7658 125.672 30.135 124.747 31.4147L124.747 31.414ZM147.889 39.2278C147.886 39.2278 147.341 39.6132 147.341 39.6132C146.563 40.1657 145.762 40.7566 144.795 40.4609C144.66 40.403 144.544 40.3202 144.457 40.2196C144.37 40.119 144.315 40.0034 144.295 39.8824C144.251 38.3012 145.149 36.837 146.018 35.4098L146.241 35.0371C148.743 31.7223 151.651 27.8144 155.922 25.1037C156.642 24.6915 157.423 24.3452 158.247 24.6153C158.48 24.7758 158.627 25.001 158.657 25.2447C158.637 25.3657 158.591 25.4831 158.521 25.5916C157.328 27.1216 156.192 28.7277 155.087 30.2698C152.928 33.3162 150.689 36.4642 147.889 39.228V39.2278Z" fill="#E61A27"/>
</g>
<defs>
<clipPath id="clip0_15:42">
<rect width="177" height="46" fill="white"/>
</clipPath>
</defs>
</svg>
